.
 
http://www.scenetime.com    -   SceneTime [ We been having it ] !!!


How come you press harder on a remote control when you know the battery is dead? so you better seed to get speed ;)

        Seed back for speed


...................................NFO:.................................................*******************************************************************************
                 Yogi Bear.2010.DvdRip.XviD.AC3 - UniQue
*******************************************************************************
[IMG]http://i98.photobucket.com/albums/l251/mrxp/Covers/yogicover.jpg[/IMG]

-------------------------------------------------------------------------------
                              General Information
-------------------------------------------------------------------------------


 __  __              _____                     
/\ \/\ \          __/\  __`\                   
\ \ \ \ \    ___ /\_\ \ \/\ \  __  __     __   
 \ \ \ \ \ /' _ `\/\ \ \ \ \ \/\ \/\ \  /'__`\ 
  \ \ \_\ \/\ \/\ \ \ \ \ \\'\\ \ \_\ \/\  __/ 
   \ \_____\ \_\ \_\ \_\ \___\_\ \____/\ \____\
    \/_____/\/_/\/_/\/_/\/__//_/\/___/  \/____/
                                               

-------------------------------------------------------------------------------
                                 Release Notes
-------------------------------------------------------------------------------
INFO

Complete name                    : Yogi Bear.2010.DvdRip.XviD.AC3 - UniQue.avi
Format                           : AVI
Format/Info                      : Audio Video Interleave
File size                        : 1.35 GiB
Duration                         : 1h 20mn
Overall bit rate                 : 2 398 Kbps
Encoder                          : MrXp

Video
ID                               : 0
Format                           : MPEG-4 Visual
Format profile                   : Advanced Simple@L5
Format settings, BVOP            : 1
Format settings, QPel            : No
Format settings, GMC             : No warppoints
Format settings, Matrix          : Default (H.263)
Muxing mode                      : Packed bitstream
Codec ID                         : XVID
Codec ID/Hint                    : XviD
Duration                         : 1h 20mn
Bit rate                         : 1 943 Kbps
Width                            : 640 pixels
Height                           : 352 pixels
Display aspect ratio             : 16:9
Frame rate                       : 25.000 fps
Color space                      : YUV
Chroma subsampling               : 4:2:0
Bit depth                        : 8 bits
Scan type                        : Progressive
Compression mode                 : Lossy
Bits/(Pixel*Frame)               : 0.345
Stream size                      : 1.09 GiB (81%)
Writing library                  : XviD 1.2.1 (UTC 2008-12-04)

Audio
ID                               : 1
Format                           : AC-3
Format/Info                      : Audio Coding 3
Mode extension                   : CM (complete main)
Codec ID                         : 2000
Duration                         : 1h 20mn
Bit rate mode                    : Constant
Bit rate                         : 448 Kbps
Channel(s)                       : 6 channels
Channel positions                : Front: L C R, Side: L R, LFE
Sampling rate                    : 48.0 KHz
Bit depth                        : 16 bits
Compression mode                 : Lossy
Stream size                      : 258 MiB (19%)
Alignment                        : Aligned on interleaves
Interleave, duration             : 64 ms (1.60 video frames)
Interleave, preload duration     : 192 ms
Title                            : Yogi Bear.2010.DvdRip.XviD.AC3 - UniQue T01 3_2ch 448Kbps DELAY 0ms_new



IMDB
 
http://www.imdb.com/title/tt1302067/

PLOT

A documentary filmmaker travels to Jellystone Park to shoot a project and soon crosses paths with Yogi Bear, his sidekick Boo-Boo, and Ranger Smith.

SCREENS

[IMG]http://i1102.photobucket.com/albums/g445/Tommy-UniQue/Screen%20Shots%20For%20Encodes/YogiBear2010DvdRipXviDAC3-UniQue_new-muxed1avi_thumbs_20110715_093542.jpg[/IMG]
[IMG]http://i1102.photobucket.com/albums/g445/Tommy-UniQue/Screen%20Shots%20For%20Encodes/vlcsnap-2011-07-15-09h49m32s130.png[/IMG]
[IMG]http://i1102.photobucket.com/albums/g445/Tommy-UniQue/Screen%20Shots%20For%20Encodes/vlcsnap-2011-07-15-09h49m20s11.png[/IMG]
[IMG]http://i1102.photobucket.com/albums/g445/Tommy-UniQue/Screen%20Shots%20For%20Encodes/vlcsnap-2011-07-15-09h49m02s82.png[/IMG]



-------------------------------------------------------------------------------
Generated with Cool NFO Creator - http://fly.to/coolbeans
-------------------------------------------------------------------------------